# xmcd
#
# Track frame offsets:
#	150
#	18807
#	34176
#	48551
#	63645
#	80627
#	97995
#	115188
#	130131
#	158072
#	176222
#	201159
#
# Disc length: 2910 seconds
#
# Revision: 0
# Processed by: cddbd v1.5.1PL0 Copyright (c) Steve Scherf et al.
# Submitted via: EasyCDDAExtractor 7.5.0.1
#
DISCID=9f0b5c0c
DTITLE=Akcent - S.O.S.
DYEAR=2005
DGENRE=Pop
TTITLE0=Dragoste De Inchiriat
TTITLE1=Ultima Vara
TTITLE2=Da-mi Dragostea
TTITLE3=Singura Cale
TTITLE4=S.O.S
TTITLE5=Enigma
TTITLE6=M-am Indragostit Lulea Feat. Laura
TTITLE7=I'm Buying You Wisky
TTITLE8=Dragoste De Inchiriat (Extended)
TTITLE9=Azi Plang Numai Eu (Gigi D'Agostono Remix)
TTITLE10=Buchet De Trandafiri (DJ Pandolfi Mix)
TTITLE11=Buchet De Trandafiri (Gigi D'Agostino Dondolandomix)
EXTD=
EXTT0=
EXTT1=
EXTT2=
EXTT3=
EXTT4=
EXTT5=
EXTT6=
EXTT7=
EXTT8=
EXTT9=
EXTT10=
EXTT11=
PLAYORDER=
